HIERARCHY
ROOT hip
{
  OFFSET 0 90.174 2.4664
  CHANNELS 6 Xposition Yposition Zposition Zrotation Xrotation Yrotation
  JOINT abdomen
  {
    OFFSET 0 -1.186 -1.5018
    CHANNELS 6 Xposition Yposition Zposition Zrotation Xrotation Yrotation
    JOINT abdomen2
    {
      OFFSET 0 9.964 0.2134
      CHANNELS 6 Xposition Yposition Zposition Zrotation Xrotation Yrotation
      JOINT chest
      {
        OFFSET 0 13.134 -3.2573
        CHANNELS 6 Xposition Yposition Zposition Zrotation Xrotation Yrotation
        JOINT neck
        {
          OFFSET 0 20.686 -1.6905
          CHANNELS 6 Xposition Yposition Zposition Zrotation Xrotation Yrotation
          JOINT head
          {
            OFFSET 0 7.238 -0.1237
            CHANNELS 6 Xposition Yposition Zposition Zrotation Xrotation Yrotation
            End Site
            {
              OFFSET 0 0 0
            }
          }
        }
        JOINT lCollar
        {
          OFFSET 1.7069 20.075 5.0056
          CHANNELS 6 Xposition Yposition Zposition Zrotation Xrotation Yrotation
          JOINT lShldr
          {
            OFFSET 13.6458 -0.047 -4.849
            CHANNELS 6 Xposition Yposition Zposition Zrotation Xrotation Yrotation
            JOINT lForeArm
            {
              OFFSET 28.3255 -0.9759 2.2888
              CHANNELS 6 Xposition Yposition Zposition Zrotation Xrotation Yrotation
              JOINT lHand
              {
                OFFSET 22.1583 -0.53 10.8316
                CHANNELS 6 Xposition Yposition Zposition Zrotation Xrotation Yrotation
                JOINT lThumb1
                {
                  OFFSET 0.786 0.112 2.5817
                  CHANNELS 6 Xposition Yposition Zposition Zrotation Xrotation Yrotation
                  JOINT lThumb2
                  {
                    OFFSET 0.3601 -0.878 4.2331
                    CHANNELS 6 Xposition Yposition Zposition Zrotation Xrotation Yrotation
                    JOINT lThumb2_End
                    {
                      OFFSET 1.8127 -1.216 2.2227
                      CHANNELS 6 Xposition Yposition Zposition Zrotation Xrotation Yrotation
                      End Site
                      {
                        OFFSET 0.0181 -0.0122 0.0222
                      }
                    }
                  }
                }
                JOINT lCarpal1
                {
                  OFFSET 0.9571 1.114 1.7695
                  CHANNELS 6 Xposition Yposition Zposition Zrotation Xrotation Yrotation
                  JOINT lIndex1
                  {
                    OFFSET 4.1246 0.487 4.1451
                    CHANNELS 6 Xposition Yposition Zposition Zrotation Xrotation Yrotation
                    JOINT lIndex2
                    {
                      OFFSET 3.4052 -1.454 2.7682
                      CHANNELS 6 Xposition Yposition Zposition Zrotation Xrotation Yrotation
                      JOINT lIndex2_End
                      {
                        OFFSET 1.4531 -1.795 1.2713
                        CHANNELS 6 Xposition Yposition Zposition Zrotation Xrotation Yrotation
                        End Site
                        {
                          OFFSET 0.0145 -0.0179 0.0127
                        }
                      }
                    }
                  }
                  JOINT lMid1
                  {
                    OFFSET 5.6954 0.21 2.1184
                    CHANNELS 6 Xposition Yposition Zposition Zrotation Xrotation Yrotation
                    JOINT lMid2
                    {
                      OFFSET 3.9766 -1.54 2.3863
                      CHANNELS 6 Xposition Yposition Zposition Zrotation Xrotation Yrotation
                      JOINT lMid2_End
                      {
                        OFFSET 1.4042 -1.926 1.125
                        CHANNELS 6 Xposition Yposition Zposition Zrotation Xrotation Yrotation
                        End Site
                        {
                          OFFSET 0.014 -0.0193 0.0113
                        }
                      }
                    }
                  }
                }
                JOINT lCarpal2
                {
                  OFFSET 2.0956 0.66 -0.3894
                  CHANNELS 6 Xposition Yposition Zposition Zrotation Xrotation Yrotation
                  JOINT lRing1
                  {
                    OFFSET 5.0395 -0.09 2.4971
                    CHANNELS 6 Xposition Yposition Zposition Zrotation Xrotation Yrotation
                    JOINT lRing2
                    {
                      OFFSET 3.7921 -1.552 1.4806
                      CHANNELS 6 Xposition Yposition Zposition Zrotation Xrotation Yrotation
                      JOINT lRing2_End
                      {
                        OFFSET 1.4655 -1.808 0.9609
                        CHANNELS 6 Xposition Yposition Zposition Zrotation Xrotation Yrotation
                        End Site
                        {
                          OFFSET 0.0147 -0.0181 0.0096
                        }
                      }
                    }
                  }
                  JOINT lPinky1
                  {
                    OFFSET 4.9141 -1.269 0.3591
                    CHANNELS 6 Xposition Yposition Zposition Zrotation Xrotation Yrotation
                    JOINT lPinky2
                    {
                      OFFSET 3.1477 -1.685 0.8462
                      CHANNELS 6 Xposition Yposition Zposition Zrotation Xrotation Yrotation
                      JOINT lPinky2_End
                      {
                        OFFSET 0.8055 -1.585 0.7955
                        CHANNELS 6 Xposition Yposition Zposition Zrotation Xrotation Yrotation
                        End Site
                        {
                          OFFSET 0.0081 -0.0158 0.008
                        }
                      }
                    }
                  }
                }
              }
            }
          }
        }
        JOINT rCollar
        {
          OFFSET -1.7069 20.075 5.0056
          CHANNELS 6 Xposition Yposition Zposition Zrotation Xrotation Yrotation
          JOINT rShldr
          {
            OFFSET -13.6458 -0.047 -4.849
            CHANNELS 6 Xposition Yposition Zposition Zrotation Xrotation Yrotation
            JOINT rForeArm
            {
              OFFSET -28.3255 -0.9759 2.2888
              CHANNELS 6 Xposition Yposition Zposition Zrotation Xrotation Yrotation
              JOINT rHand
              {
                OFFSET -22.1583 -0.53 10.8316
                CHANNELS 6 Xposition Yposition Zposition Zrotation Xrotation Yrotation
                JOINT rThumb1
                {
                  OFFSET -0.786 0.112 2.5817
                  CHANNELS 6 Xposition Yposition Zposition Zrotation Xrotation Yrotation
                  JOINT rThumb2
                  {
                    OFFSET -0.3601 -0.878 4.2331
                    CHANNELS 6 Xposition Yposition Zposition Zrotation Xrotation Yrotation
                    JOINT rThumb2_End
                    {
                      OFFSET -1.8127 -1.216 2.2227
                      CHANNELS 6 Xposition Yposition Zposition Zrotation Xrotation Yrotation
                      End Site
                      {
                        OFFSET -0.0181 -0.0122 0.0222
                      }
                    }
                  }
                }
                JOINT rCarpal1
                {
                  OFFSET -0.9571 1.114 1.7695
                  CHANNELS 6 Xposition Yposition Zposition Zrotation Xrotation Yrotation
                  JOINT rIndex1
                  {
                    OFFSET -4.1246 0.487 4.1451
                    CHANNELS 6 Xposition Yposition Zposition Zrotation Xrotation Yrotation
                    JOINT rIndex2
                    {
                      OFFSET -3.4052 -1.454 2.7682
                      CHANNELS 6 Xposition Yposition Zposition Zrotation Xrotation Yrotation
                      JOINT rIndex2_End
                      {
                        OFFSET -1.4531 -1.795 1.2713
                        CHANNELS 6 Xposition Yposition Zposition Zrotation Xrotation Yrotation
                        End Site
                        {
                          OFFSET -0.0145 -0.018 0.0127
                        }
                      }
                    }
                  }
                  JOINT rMid1
                  {
                    OFFSET -5.6954 0.21 2.1184
                    CHANNELS 6 Xposition Yposition Zposition Zrotation Xrotation Yrotation
                    JOINT rMid2
                    {
                      OFFSET -3.9766 -1.54 2.3863
                      CHANNELS 6 Xposition Yposition Zposition Zrotation Xrotation Yrotation
                      JOINT rMid2_End
                      {
                        OFFSET -1.4042 -1.926 1.125
                        CHANNELS 6 Xposition Yposition Zposition Zrotation Xrotation Yrotation
                        End Site
                        {
                          OFFSET -0.014 -0.0193 0.0113
                        }
                      }
                    }
                  }
                }
                JOINT rCarpal2
                {
                  OFFSET -2.0956 0.66 -0.3894
                  CHANNELS 6 Xposition Yposition Zposition Zrotation Xrotation Yrotation
                  JOINT rRing1
                  {
                    OFFSET -5.0395 -0.09 2.4971
                    CHANNELS 6 Xposition Yposition Zposition Zrotation Xrotation Yrotation
                    JOINT rRing2
                    {
                      OFFSET -3.7921 -1.552 1.4806
                      CHANNELS 6 Xposition Yposition Zposition Zrotation Xrotation Yrotation
                      JOINT rRing2_End
                      {
                        OFFSET -1.4655 -1.808 0.9609
                        CHANNELS 6 Xposition Yposition Zposition Zrotation Xrotation Yrotation
                        End Site
                        {
                          OFFSET -0.0147 -0.0181 0.0096
                        }
                      }
                    }
                  }
                  JOINT rPinky1
                  {
                    OFFSET -4.9141 -1.269 0.3592
                    CHANNELS 6 Xposition Yposition Zposition Zrotation Xrotation Yrotation
                    JOINT rPinky2
                    {
                      OFFSET -3.1477 -1.685 0.8462
                      CHANNELS 6 Xposition Yposition Zposition Zrotation Xrotation Yrotation
                      JOINT rPinky2_End
                      {
                        OFFSET -0.8055 -1.585 0.7955
                        CHANNELS 6 Xposition Yposition Zposition Zrotation Xrotation Yrotation
                        End Site
                        {
                          OFFSET -0.0081 -0.0158 0.008
                        }
                      }
                    }
                  }
                }
              }
            }
          }
        }
      }
    }
  }
  JOINT lThigh
  {
    OFFSET 8.367 -8.2066 0.5982
    CHANNELS 6 Xposition Yposition Zposition Zrotation Xrotation Yrotation
    JOINT lShin
    {
      OFFSET 2.1923 -43.463 -0.4932
      CHANNELS 6 Xposition Yposition Zposition Zrotation Xrotation Yrotation
      JOINT lFoot
      {
        OFFSET 0.7333 -45.8593 -2.6451
        CHANNELS 6 Xposition Yposition Zposition Zrotation Xrotation Yrotation
        End Site
        {
          OFFSET 2.6618 -4.2699 12.3931
        }
      }
    }
  }
  JOINT rThigh
  {
    OFFSET -8.367 -8.2066 0.5982
    CHANNELS 6 Xposition Yposition Zposition Zrotation Xrotation Yrotation
    JOINT rShin
    {
      OFFSET -2.1923 -43.463 -0.4931
      CHANNELS 6 Xposition Yposition Zposition Zrotation Xrotation Yrotation
      JOINT rFoot
      {
        OFFSET -0.7333 -45.8593 -2.6451
        CHANNELS 6 Xposition Yposition Zposition Zrotation Xrotation Yrotation
        End Site
        {
          OFFSET -2.6618 -4.2699 12.3931
        }
      }
    }
  }
}
MOTION
Frames:	4
Frame Time:	0.0333333
0.000593644 -2.89903 54.9053 -180 -85.9956 -180 0 -1.186 -1.5018 -0.0422637 1.40614 -0.0992524 0 9.964 0.2134 -0.082127 2.81234 -0.197556 1.38778e-017 13.134 -3.2573 -0.0821269 2.81233 -0.197556 1.38778e-017 20.686 -1.6905 7.5696e-006 7.95696 2.57893e-006 -1.38778e-017 7.238 -0.1237 5.71224e-008 -13.9914 7.51568e-008 1.7069 20.075 5.0056 -1.65616 -15.2305 7.86932 13.6458 -0.047 -4.849 -0.142091 -13.5306 -70.4203 28.3255 -0.9759 2.2888 -28.1393 -16.5169 -32.4182 22.1583 -0.53 10.8316 -17.5203 -45.8375 11.3095 0.786 0.112 2.5817 4.87718e-008 -1.05746e-006 -1.29219e-006 0.3601 -0.878 4.2331 4.02853e-007 2.34728e-007 -2.34965e-006 1.8127 -1.216 2.2227 7.95139e-016 -3.18055e-015 -0 0.9571 1.114 1.7695 1.59028e-015 3.18055e-015 -3.18055e-015 4.1246 0.487 4.1451 4.87718e-008 -1.05746e-006 -1.29219e-006 3.4052 -1.454 2.7682 4.02853e-007 2.34728e-007 -2.34965e-006 1.4531 -1.795 1.2713 1.59028e-015 -3.18055e-015 -3.18055e-015 5.6954 0.21 2.1184 4.87718e-008 -1.05746e-006 -1.29219e-006 3.9766 -1.54 2.3863 4.02853e-007 2.34728e-007 -2.34965e-006 1.4042 -1.926 1.125 1.59028e-015 -3.18055e-015 -3.18055e-015 2.0956 0.66 -0.3894 1.59028e-015 3.18055e-015 -3.18055e-015 5.0395 -0.09 2.4971 4.87718e-008 -1.05746e-006 -1.29219e-006 3.7921 -1.552 1.4806 4.02853e-007 2.34728e-007 -2.34965e-006 1.4655 -1.808 0.9609 1.59028e-015 -3.18055e-015 -3.18055e-015 4.9141 -1.269 0.3591 4.87718e-008 -1.05746e-006 -1.29219e-006 3.1477 -1.685 0.8462 4.02853e-007 2.34728e-007 -2.34965e-006 0.8055 -1.585 0.7955 1.59028e-015 -3.18055e-015 -3.18055e-015 -1.7069 20.075 5.0056 1.66355 -15.2012 -8.03348 -13.6458 -0.047 -4.849 0.210372 -13.3327 71.1658 -28.3255 -0.9759 2.2888 26.4003 -17.8491 31.0168 -22.1583 -0.53 10.8316 17.2414 -45.4437 -12.7059 -0.786 0.112 2.5817 -4.8713e-008 -1.08755e-006 1.26549e-006 -0.3601 -0.878 4.2331 -3.5935e-007 1.26549e-006 1.08755e-006 -1.8127 -1.216 2.2227 -4.87131e-008 -1.08755e-006 1.26549e-006 -0.9571 1.114 1.7695 -7.95139e-016 3.18055e-015 -6.36111e-015 -4.1246 0.487 4.1451 -4.8713e-008 -1.08755e-006 1.26549e-006 -3.4052 -1.454 2.7682 -3.5935e-007 1.26549e-006 1.08755e-006 -1.4531 -1.795 1.2713 -4.87131e-008 -1.08755e-006 1.26549e-006 -5.6954 0.21 2.1184 -4.8713e-008 -1.08755e-006 1.26549e-006 -3.9766 -1.54 2.3863 -3.5935e-007 1.26549e-006 1.08755e-006 -1.4042 -1.926 1.125 -4.87131e-008 -1.08755e-006 1.26549e-006 -2.0956 0.66 -0.3894 -7.95139e-016 3.18055e-015 -6.36111e-015 -5.0395 -0.09 2.4971 -4.8713e-008 -1.08755e-006 1.26549e-006 -3.7921 -1.552 1.4806 -3.5935e-007 1.26549e-006 1.08755e-006 -1.4655 -1.808 0.9609 -4.87131e-008 -1.08755e-006 1.26549e-006 -4.9141 -1.269 0.3592 -4.8713e-008 -1.08755e-006 1.26549e-006 -3.1477 -1.685 0.8462 -3.5935e-007 1.26549e-006 1.08755e-006 -0.8055 -1.585 0.7955 -4.87131e-008 -1.08755e-006 1.26549e-006 8.367 -8.2066 0.5982 94.0502 -55.0611 123.766 2.1923 -43.463 -0.4932 -6.35504 -0.647824 -8.60563 0.7333 -45.8593 -2.6451 18.6273 14.3141 -19.2925 -8.367 -8.2066 0.5982 -94.0619 -55.0474 -123.781 -2.1923 -43.463 -0.4931 6.3502 -0.637265 8.60061 -0.7333 -45.8593 -2.6451 -18.63 14.3157 19.2895 
0.000583668 -2.89794 54.9163 -180 -85.9956 -180 0 -1.186 -1.5018 -0.0421223 1.36612 -0.0993369 -6.93889e-018 9.964 0.2134 -0.0819093 2.73227 -0.197753 0 13.134 -3.2573 -0.0819094 2.73229 -0.197752 1.38778e-017 20.686 -1.6905 -3.64716e-006 8.91606 -4.46617e-007 1.38778e-017 7.238 -0.1237 -7.63981e-012 -12.9814 -5.53602e-008 1.7069 20.075 5.0056 -1.60376 -14.9012 7.39187 13.6458 -0.047 -4.849 -0.142106 -13.5306 -70.4203 28.3255 -0.9759 2.2888 -27.8515 -16.8635 -31.6649 22.1583 -0.53 10.8316 -18.0713 -45.6142 10.8958 0.786 0.112 2.5817 -4.81677e-006 2.71688e-006 -1.24922e-006 0.3601 -0.878 4.2331 4.83916e-008 -1.05565e-006 -1.29317e-006 1.8127 -1.216 2.2227 -8.13765e-006 1.96169e-006 -2.6099e-006 0.9571 1.114 1.7695 0 0 -0 4.1246 0.487 4.1451 -4.81677e-006 2.71688e-006 -1.24922e-006 3.4052 -1.454 2.7682 4.83916e-008 -1.05565e-006 -1.29317e-006 1.4531 -1.795 1.2713 -8.13765e-006 1.96169e-006 -2.6099e-006 5.6954 0.21 2.1184 -4.81677e-006 2.71688e-006 -1.24922e-006 3.9766 -1.54 2.3863 4.83916e-008 -1.05565e-006 -1.29317e-006 1.4042 -1.926 1.125 -8.13765e-006 1.96169e-006 -2.6099e-006 2.0956 0.66 -0.3894 0 0 -0 5.0395 -0.09 2.4971 -4.81677e-006 2.71688e-006 -1.24922e-006 3.7921 -1.552 1.4806 4.83916e-008 -1.05565e-006 -1.29317e-006 1.4655 -1.808 0.9609 -8.13765e-006 1.96169e-006 -2.6099e-006 4.9141 -1.269 0.3591 -4.81677e-006 2.71688e-006 -1.24922e-006 3.1477 -1.685 0.8462 4.83916e-008 -1.05565e-006 -1.29317e-006 0.8055 -1.585 0.7955 -8.13765e-006 1.96169e-006 -2.6099e-006 -1.7069 20.075 5.0056 1.61087 -14.8732 -7.54747 -13.6458 -0.047 -4.849 0.210378 -13.3327 71.1658 -28.3255 -0.9759 2.2888 26.0914 -18.1739 30.2466 -22.1583 -0.53 10.8316 17.7887 -45.2264 -12.2952 -0.786 0.112 2.5817 7.95139e-016 0 3.18055e-015 -0.3601 -0.878 4.2331 4.51574e-008 -1.58312e-007 -1.35719e-007 -1.8127 -1.216 2.2227 -4.83503e-008 -1.08575e-006 1.2665e-006 -0.9571 1.114 1.7695 -0 0 6.36111e-015 -4.1246 0.487 4.1451 -5.56597e-015 -9.54166e-015 3.18055e-015 -3.4052 -1.454 2.7682 4.51574e-008 -1.58312e-007 -1.35719e-007 -1.4531 -1.795 1.2713 -4.83503e-008 -1.08575e-006 1.2665e-006 -5.6954 0.21 2.1184 -5.56597e-015 -9.54166e-015 3.18055e-015 -3.9766 -1.54 2.3863 4.51574e-008 -1.58312e-007 -1.35719e-007 -1.4042 -1.926 1.125 -4.83503e-008 -1.08575e-006 1.2665e-006 -2.0956 0.66 -0.3894 -0 0 6.36111e-015 -5.0395 -0.09 2.4971 -5.56597e-015 -9.54166e-015 3.18055e-015 -3.7921 -1.552 1.4806 4.51574e-008 -1.58312e-007 -1.35719e-007 -1.4655 -1.808 0.9609 -4.83503e-008 -1.08575e-006 1.2665e-006 -4.9141 -1.269 0.3592 -5.56597e-015 -9.54166e-015 3.18055e-015 -3.1477 -1.685 0.8462 4.51574e-008 -1.58312e-007 -1.35719e-007 -0.8055 -1.585 0.7955 -4.83503e-008 -1.08575e-006 1.2665e-006 8.367 -8.2066 0.5982 94.0047 -55.1791 123.701 2.1923 -43.463 -0.4932 -6.62739 -0.791249 -8.60223 0.7333 -45.8593 -2.6451 18.6353 14.1251 -19.2676 -8.367 -8.2066 0.5982 -94.0216 -55.1636 -123.721 -2.1923 -43.463 -0.4931 6.62259 -0.773682 8.5961 -0.7333 -45.8593 -2.6451 -18.6385 14.1229 19.2641 
0.000573983 -2.89683 54.9272 -180 -85.9956 -180 0 -1.186 -1.5018 -0.0419812 1.3261 -0.099422 3.46945e-018 9.964 0.2134 -0.0816928 2.6523 -0.197951 0 13.134 -3.2573 -0.0816928 2.65226 -0.197952 1.38778e-017 20.686 -1.6905 2.05541e-006 9.8744 1.78174e-006 -2.77556e-017 7.238 -0.1237 6.0157e-008 -11.9717 -5.78823e-008 1.7069 20.075 5.0056 -1.5486 -14.5723 6.91489 13.6458 -0.047 -4.849 -0.142074 -13.5306 -70.4203 28.3255 -0.9759 2.2888 -27.5584 -17.2064 -30.9087 22.1583 -0.53 10.8316 -18.6177 -45.3882 10.4868 0.786 0.112 2.5817 7.95139e-016 0 -0 0.3601 -0.878 4.2331 -9.60483e-008 2.10768e-006 2.58829e-006 1.8127 -1.216 2.2227 1.59028e-015 0 3.18055e-015 0.9571 1.114 1.7695 7.95139e-016 0 -0 4.1246 0.487 4.1451 -5.56597e-015 3.18055e-015 6.36111e-015 3.4052 -1.454 2.7682 -9.60483e-008 2.10768e-006 2.58829e-006 1.4531 -1.795 1.2713 -1.59028e-015 -3.18055e-015 6.36111e-015 5.6954 0.21 2.1184 -5.56597e-015 3.18055e-015 6.36111e-015 3.9766 -1.54 2.3863 -9.60483e-008 2.10768e-006 2.58829e-006 1.4042 -1.926 1.125 -1.59028e-015 -3.18055e-015 6.36111e-015 2.0956 0.66 -0.3894 7.95139e-016 0 -0 5.0395 -0.09 2.4971 -5.56597e-015 3.18055e-015 6.36111e-015 3.7921 -1.552 1.4806 -9.60483e-008 2.10768e-006 2.58829e-006 1.4655 -1.808 0.9609 -1.59028e-015 -3.18055e-015 6.36111e-015 4.9141 -1.269 0.3591 -5.56597e-015 3.18055e-015 6.36111e-015 3.1477 -1.685 0.8462 -9.60483e-008 2.10768e-006 2.58829e-006 0.8055 -1.585 0.7955 -1.59028e-015 -3.18055e-015 6.36111e-015 -1.7069 20.075 5.0056 1.5554 -14.5459 -7.06193 -13.6458 -0.047 -4.849 0.210376 -13.3327 71.1658 -28.3255 -0.9759 2.2888 25.7774 -18.4946 29.4731 -22.1583 -0.53 10.8316 18.3317 -45.0063 -11.8889 -0.786 0.112 2.5817 4.74964e-006 8.66867e-007 -2.03067e-006 -0.3601 -0.878 4.2331 4.98437e-006 4.25444e-006 -1.801e-006 -1.8127 -1.216 2.2227 8.50049e-006 5.21933e-006 -1.08045e-006 -0.9571 1.114 1.7695 -1.59028e-015 -6.36111e-015 3.18055e-015 -4.1246 0.487 4.1451 4.74964e-006 8.66867e-007 -2.03067e-006 -3.4052 -1.454 2.7682 4.98437e-006 4.25444e-006 -1.801e-006 -1.4531 -1.795 1.2713 8.50049e-006 5.21933e-006 -1.08045e-006 -5.6954 0.21 2.1184 4.74964e-006 8.66867e-007 -2.03067e-006 -3.9766 -1.54 2.3863 4.98437e-006 4.25444e-006 -1.801e-006 -1.4042 -1.926 1.125 8.50049e-006 5.21933e-006 -1.08045e-006 -2.0956 0.66 -0.3894 -1.59028e-015 -6.36111e-015 3.18055e-015 -5.0395 -0.09 2.4971 4.74964e-006 8.66867e-007 -2.03067e-006 -3.7921 -1.552 1.4806 4.98437e-006 4.25444e-006 -1.801e-006 -1.4655 -1.808 0.9609 8.50049e-006 5.21933e-006 -1.08045e-006 -4.9141 -1.269 0.3592 4.74964e-006 8.66867e-007 -2.03067e-006 -3.1477 -1.685 0.8462 4.98437e-006 4.25444e-006 -1.801e-006 -0.8055 -1.585 0.7955 8.50049e-006 5.21933e-006 -1.08045e-006 8.367 -8.2066 0.5982 93.9375 -55.3055 123.619 2.1923 -43.463 -0.4932 -6.89934 -0.963219 -8.6047 0.7333 -45.8593 -2.6451 18.6415 13.9501 -19.2443 -8.367 -8.2066 0.5982 -93.9378 -55.2965 -123.625 -2.1923 -43.463 -0.4931 6.89468 -0.967508 8.60182 -0.7333 -45.8593 -2.6451 -18.6435 13.9582 19.2421 
0.000562482 -2.8957 54.938 -180 -85.9956 -180 0 -1.186 -1.5018 -0.0418396 1.28608 -0.0995055 0 9.964 0.2134 -0.0814754 2.57223 -0.198146 -1.38778e-017 13.134 -3.2573 -0.0814753 2.57221 -0.198147 -1.38778e-017 20.686 -1.6905 2.13843e-006 10.8323 -4.45052e-006 0 7.238 -0.1237 -3.18082e-008 -10.9624 -8.91341e-008 1.7069 20.075 5.0056 -1.49072 -14.244 6.43836 13.6458 -0.047 -4.849 -0.142083 -13.5306 -70.4203 28.3255 -0.9759 2.2888 -27.2602 -17.5454 -30.1493 22.1583 -0.53 10.8316 -19.1595 -45.1595 10.0826 0.786 0.112 2.5817 9.53419e-008 -2.10407e-006 -2.5902e-006 0.3601 -0.878 4.2331 -4.7671e-008 1.05203e-006 1.2951e-006 1.8127 -1.216 2.2227 -3.12028e-007 -2.34713e-006 -2.43068e-007 0.9571 1.114 1.7695 3.18055e-015 6.36111e-015 -6.36111e-015 4.1246 0.487 4.1451 9.53419e-008 -2.10407e-006 -2.5902e-006 3.4052 -1.454 2.7682 -4.7671e-008 1.05203e-006 1.2951e-006 1.4531 -1.795 1.2713 -3.12028e-007 -2.34713e-006 -2.43068e-007 5.6954 0.21 2.1184 9.53419e-008 -2.10407e-006 -2.5902e-006 3.9766 -1.54 2.3863 -4.7671e-008 1.05203e-006 1.2951e-006 1.4042 -1.926 1.125 -3.12028e-007 -2.34713e-006 -2.43068e-007 2.0956 0.66 -0.3894 3.18055e-015 6.36111e-015 -6.36111e-015 5.0395 -0.09 2.4971 9.53419e-008 -2.10407e-006 -2.5902e-006 3.7921 -1.552 1.4806 -4.7671e-008 1.05203e-006 1.2951e-006 1.4655 -1.808 0.9609 -3.12028e-007 -2.34713e-006 -2.43068e-007 4.9141 -1.269 0.3591 9.53419e-008 -2.10407e-006 -2.5902e-006 3.1477 -1.685 0.8462 -4.7671e-008 1.05203e-006 1.2951e-006 0.8055 -1.585 0.7955 -3.12028e-007 -2.34713e-006 -2.43068e-007 -1.7069 20.075 5.0056 1.49717 -14.2189 -6.57686 -13.6458 -0.047 -4.849 0.210386 -13.3327 71.1658 -28.3255 -0.9759 2.2888 25.4583 -18.8112 28.6967 -22.1583 -0.53 10.8316 18.8702 -44.7836 -11.4873 -0.786 0.112 2.5817 -2.01871e-009 -1.24073e-006 1.1332e-006 -0.3601 -0.878 4.2331 1.59028e-015 2.8625e-014 -3.18055e-015 -1.8127 -1.216 2.2227 4.77083e-015 2.8625e-014 -0 -0.9571 1.114 1.7695 -1.59028e-015 -3.18055e-015 6.36111e-015 -4.1246 0.487 4.1451 -2.01872e-009 -1.24073e-006 1.1332e-006 -3.4052 -1.454 2.7682 7.95139e-016 3.49861e-014 -6.36111e-015 -1.4531 -1.795 1.2713 7.95139e-016 3.81667e-014 -3.18055e-015 -5.6954 0.21 2.1184 -2.01872e-009 -1.24073e-006 1.1332e-006 -3.9766 -1.54 2.3863 7.95139e-016 3.49861e-014 -6.36111e-015 -1.4042 -1.926 1.125 7.95139e-016 3.81667e-014 -3.18055e-015 -2.0956 0.66 -0.3894 -1.59028e-015 -3.18055e-015 6.36111e-015 -5.0395 -0.09 2.4971 -2.01872e-009 -1.24073e-006 1.1332e-006 -3.7921 -1.552 1.4806 7.95139e-016 3.49861e-014 -6.36111e-015 -1.4655 -1.808 0.9609 7.95139e-016 3.81667e-014 -3.18055e-015 -4.9141 -1.269 0.3592 -2.01872e-009 -1.24073e-006 1.1332e-006 -3.1477 -1.685 0.8462 7.95139e-016 3.49861e-014 -6.36111e-015 -0.8055 -1.585 0.7955 7.95139e-016 3.81667e-014 -3.18055e-015 8.367 -8.2066 0.5982 93.8651 -55.4341 123.534 2.1923 -43.463 -0.4932 -7.17082 -1.14163 -8.60977 0.7333 -45.8593 -2.6451 18.6471 13.7783 -19.2213 -8.367 -8.2066 0.5982 -93.9012 -55.4118 -123.569 -2.1923 -43.463 -0.4931 7.16601 -1.09854 8.5996 -0.7333 -45.8593 -2.6451 -18.6518 13.7629 19.2163 
